<svg width="81" height="69" viewBox="0 0 81 69" fill="none" xmlns="http://www.w3.org/2000/svg">
<g clip-path="url(#clip0_424_320)">
<path d="M40.5 44.0229C38.0784 44.0229 35.7402 44.1065 33.4021 44.19C33.4856 44.4406 33.4856 44.6912 33.4856 45.0254C35.7402 44.9418 38.0784 44.8583 40.5 44.8583C60.6247 44.8583 76.9082 49.2857 76.9082 54.799C76.9082 60.3123 60.6247 64.7397 40.5 64.7397C20.3753 64.7397 4.09175 60.3123 4.09175 54.799C4.09175 50.7893 12.8598 47.2808 25.4691 45.7772C25.4691 45.5266 25.4691 45.276 25.4691 44.9418C10.5216 46.7796 0 51.2905 0 56.5532C0 63.4031 18.1206 68.9999 40.5 68.9999C62.8794 68.9999 81 63.4031 81 56.5532C81 49.6198 62.8794 44.0229 40.5 44.0229Z" fill="#0062BD"/>
<path d="M39.4145 45.6101C37.2433 45.6101 35.0722 45.6936 33.0681 45.7772C33.1516 46.1113 33.2351 46.4455 33.2351 46.7796C35.2392 46.6125 37.3268 46.529 39.4145 46.529C52.9423 46.529 63.8815 49.4527 63.8815 53.0447C63.8815 56.6367 52.9423 59.5605 39.4145 59.5605C25.8866 59.5605 14.9475 56.6367 14.9475 53.0447C14.9475 50.8728 18.9557 48.9515 25.2186 47.782C25.1351 47.3643 25.1351 46.9467 25.2186 46.529C15.365 47.8656 8.60107 50.6222 8.60107 53.7966C8.60107 58.3074 22.3794 61.983 39.4145 61.983C56.4495 61.983 70.2279 58.3074 70.2279 53.7966C70.3114 49.2857 56.4495 45.6101 39.4145 45.6101Z" fill="#0062BD"/>
<path d="M53.9887 0.0716247C52.8196 -0.178981 51.901 0.238695 51.1495 1.15758C50.3144 2.16 49.9804 3.41303 49.8969 4.74959C49.8134 5.91908 50.0639 6.9215 50.899 7.84039C51.1495 8.09099 51.1495 8.3416 50.9825 8.67574C50.6485 9.84523 50.3144 10.9312 49.9804 12.1007C48.8113 15.9433 47.7258 19.7859 46.5567 23.7121C46.4732 23.9627 46.3897 24.0462 46.0557 24.1297C45.3041 24.1297 44.4691 24.2133 43.7175 24.3803C41.6299 24.798 39.8763 25.9675 38.1227 27.137C35.7845 28.7242 33.7804 30.5619 31.8598 32.5668C29.1041 35.3234 26.6825 38.3307 24.6784 41.6721C22.8412 44.7629 21.3381 47.9372 19.9186 51.1951C19.5845 51.8634 19.334 52.6152 19 53.2835C19.7515 53.5341 19.9186 53.6176 20.5866 53.8682C31.0247 57.6273 46.4732 57.8779 57.5794 55.4554C58.2474 49.3573 57.8299 43.7605 56.4938 37.746C55.9093 34.8222 55.0742 32.0656 53.5711 29.3924C52.4856 27.4711 51.1495 25.8004 49.1454 24.798C48.8948 24.7145 48.9784 24.5474 49.0619 24.3803C49.3959 23.0438 49.7299 21.7072 49.9804 20.2871C50.899 16.528 51.734 12.769 52.5691 9.09342C52.6526 8.75928 52.8196 8.59221 53.1536 8.42514C53.4876 8.25807 53.9052 8.09099 54.1557 7.84039C55.6588 6.33676 56.2433 4.49899 55.8258 2.41061C55.7423 1.07405 55.0742 0.32223 53.9887 0.0716247ZM44.5526 30.3949C32.6113 40.1685 30.0227 52.0305 30.0227 52.0305L23.4258 51.1951C24.0103 49.775 27.0165 44.6794 28.4361 42.3404C28.4361 42.3404 28.4361 42.2569 28.5196 42.2569C28.6031 42.0898 28.6866 42.0062 28.7701 41.8392C29.0206 41.338 29.2711 41.0874 29.2711 41.0874C31.7763 37.0777 34.866 33.4857 38.7072 30.5619C40.5443 29.1418 42.465 27.8888 44.5526 26.9699C44.7196 26.8864 44.8866 26.8029 45.1371 26.8029C46.7237 27.137 45.4711 29.5595 44.5526 30.3949Z" fill="#F15A29"/>
</g>
<defs>
<clipPath id="clip0_424_320">
<rect width="81" height="69" fill="white"/>
</clipPath>
</defs>
</svg>
