<svg width="507" height="470" viewBox="0 0 507 470" fill="none" xmlns="http://www.w3.org/2000/svg">
<path fill-rule="evenodd" clip-rule="evenodd" d="M217.389 50.8725C253.388 62.9133 283.354 82.4907 318.334 97.2248C368.197 118.228 432.477 112.693 465.6 155.422C501.949 202.313 520.283 272.223 495.906 326.292C471.68 380.024 400.777 388.907 348.234 415.745C305.302 437.673 264.641 478.163 217.389 468.549C170.879 459.085 156.351 400.185 120.295 369.365C88.6418 342.31 40.9644 335.957 20.1221 299.934C-2.93856 260.077 -2.09166 212.104 2.82615 166.338C8.87357 110.059 1.58941 34.8306 51.4945 7.97458C103.039 -19.7639 161.866 32.3018 217.389 50.8725Z" fill="url(#paint0_linear_310_1263)"/>
<path d="M435.189 431.723C428.807 423.554 433.962 416.503 442.13 410.121C450.298 403.74 458.387 400.444 464.769 408.612C471.151 416.781 467.647 430.547 459.479 436.929C451.31 443.31 441.57 439.891 435.189 431.723Z" fill="url(#paint1_linear_310_1263)"/>
<defs>
<linearGradient id="paint0_linear_310_1263" x1="253.5" y1="0" x2="253.5" y2="470" gradientUnits="userSpaceOnUse">
<stop stop-color="#0062BD"/>
<stop offset="1" stop-color="#0066FF"/>
</linearGradient>
<linearGradient id="paint1_linear_310_1263" x1="461.711" y1="435.184" x2="442.13" y2="410.121" gradientUnits="userSpaceOnUse">
<stop stop-color="#0062BD"/>
<stop offset="1" stop-color="#0066FF"/>
</linearGradient>
</defs>
</svg>
