<svg width="40" height="40" viewBox="0 0 40 40" fill="none" xmlns="http://www.w3.org/2000/svg">
<rect x="38.5" y="38.5" width="37" height="37" rx="18.5" transform="rotate(-180 38.5 38.5)" stroke="#AEAEAE" stroke-width="3"/>
<path d="M25.31 18.9348L16.82 10.4598C16.6805 10.3192 16.5146 10.2076 16.3318 10.1315C16.149 10.0553 15.953 10.0161 15.755 10.0161C15.557 10.0161 15.3609 10.0553 15.1781 10.1315C14.9953 10.2076 14.8294 10.3192 14.69 10.4598C14.4106 10.7409 14.2538 11.121 14.2538 11.5173C14.2538 11.9136 14.4106 12.2938 14.69 12.5748L22.115 20.0748L14.69 27.4998C14.4106 27.7809 14.2538 28.161 14.2538 28.5573C14.2538 28.9536 14.4106 29.3338 14.69 29.6148C14.8289 29.7565 14.9946 29.8693 15.1774 29.9465C15.3602 30.0238 15.5565 30.064 15.755 30.0648C15.9534 30.064 16.1498 30.0238 16.3326 29.9465C16.5154 29.8693 16.6811 29.7565 16.82 29.6148L25.31 21.1398C25.4622 20.9993 25.5837 20.8289 25.6669 20.6391C25.75 20.4494 25.7929 20.2445 25.7929 20.0373C25.7929 19.8302 25.75 19.6253 25.6669 19.4355C25.5837 19.2458 25.4622 19.0753 25.31 18.9348Z" fill="#AEAEAE"/>
</svg>
